<svg width="129" height="119" viewBox="0 0 129 119" fill="none" xmlns="http://www.w3.org/2000/svg">
<g id="logo">
<g id="path52" filter="url(#filter0_d_3_443)">
<path d="M57.1605 95.5299C58.6947 95.3603 60.2762 95.0791 61.8516 94.8122C67.3708 93.8567 73.2894 91.7571 79.1628 89.6177C79.2437 89.5967 79.3244 89.5825 79.4051 89.5668C81.2814 92.4382 83.29 95.2003 84.769 98.4062C85.5168 100.235 85.9057 102.378 87.4594 103.512C87.817 103.785 87.9738 104.264 88.7949 103.628C89.9472 102.517 88.7691 101.723 88.497 100.961C88.2039 100.406 88.0058 99.7803 87.8715 99.1057C87.3098 95.3644 85.4123 92.6265 83.6916 89.7871C82.9055 88.5326 82.1222 87.2768 81.3391 86.0199C81.6616 85.5482 81.9544 85.0604 82.3162 84.6062C83.5798 82.9562 84.6248 81.2426 85.4825 79.5397C86.7448 77.0265 87.5512 74.5636 88.8833 72.0413C92.5586 65.2614 93.8877 58.7909 97.5242 52.0224C98.5113 50.1665 99.5482 48.294 100.152 46.4796C100.862 44.456 101.414 42.472 102.141 40.4448C102.39 39.7524 102.628 39.0599 102.87 38.3697C103.092 37.8027 102.77 37.4116 102.143 37.8284C101.432 38.4262 100.942 39.2489 100.386 39.9612C98.694 42.2645 97.0524 44.5873 95.541 46.9343C92.7421 51.1584 90.2845 55.4225 88.3479 59.6701C85.511 65.4025 83.6708 70.9915 82.0053 76.4915C81.2254 79.0446 80.4526 81.609 80.094 84.0172C78.7851 81.9046 77.4769 79.7913 76.1683 77.6776C76.2545 77.5507 76.3049 77.4191 76.2936 77.3115C78.6291 72.6945 80.8838 68.074 82.9693 63.4772C84.3022 60.1155 85.9599 56.7105 87.4269 53.3307C88.6784 50.0422 89.4793 46.8652 90.825 43.5528C91.8511 40.8644 92.477 38.2835 93.165 35.6901C93.397 34.836 93.6607 33.9715 93.8896 33.1184C93.9829 32.6808 94.214 32.1327 94.0182 31.8527C93.8721 31.6767 93.5352 31.69 93.1954 31.9286C92.9315 32.1141 92.7158 32.4007 92.5116 32.6486C91.6489 33.6975 90.852 34.7728 90.0135 35.8323C88.894 37.257 87.7296 38.6666 86.66 40.1115C82.9079 45.3184 80.3327 50.7588 78.5149 55.9138C77.8203 58.0255 77.366 60.0638 76.8478 62.1211C76.2507 64.614 75.3491 67.2422 75.2444 69.5405C75.1538 71.6969 75.1812 73.7906 75.0983 75.9438C74.1381 74.3727 73.1852 72.7952 72.2226 71.2258C72.2349 71.1905 72.2455 71.1563 72.2553 71.1214C72.4483 70.5309 72.5853 69.9565 72.7244 69.3829C73.3926 66.6475 73.4299 64.1677 74.0775 61.4402C74.9752 58.2079 75.4073 55.1536 76.0183 52.0284C76.5356 49.5969 77.4356 47.005 77.4639 44.7742C77.465 41.2902 77.2866 37.9023 77.3125 34.4024C77.3091 33.3781 77.3424 32.3334 77.3293 31.3129C77.2849 30.6495 77.3604 29.5234 76.3692 29.8437C75.2621 30.3265 74.8914 31.6732 74.404 32.5706C73.7723 33.9345 73.0945 35.3068 72.557 36.6578C71.6812 38.777 71.4732 40.6991 71.1279 42.6455C70.8498 44.3088 70.4645 46.0144 70.1291 47.7004C69.7312 50.0178 69.6187 52.2093 69.4443 54.4244C69.2928 56.2604 68.9969 58.1721 68.9969 59.9343C69.0314 62.9053 69.7217 65.4828 70.4699 67.9891C70.543 68.2537 70.6231 68.5157 70.7038 68.777C69.134 66.284 67.5161 63.8325 65.7707 61.4951C65.9301 61.1074 66.1223 60.7158 66.3113 60.3265C67.1226 58.5311 67.3108 56.8837 67.7621 55.1845C67.9617 54.3577 68.1762 53.5255 68.3771 52.6973C68.7803 51.0071 69.1147 49.3376 69.3655 47.7053C69.5905 46.1504 69.5464 44.7242 69.6472 43.2284C69.8472 40.4973 70.2475 37.6596 69.9501 35.19C69.8533 33.7789 69.7693 32.3549 69.9124 30.8132C69.9648 29.6193 70.2779 28.249 69.9512 27.276C69.8035 26.9532 69.1109 27.2394 68.789 27.7172C68.3251 28.5933 68.0615 29.4606 67.6736 30.3339C66.4548 33.0429 65.236 35.7585 64.5491 38.3598C63.629 41.7542 63.3551 44.9302 63.4016 47.8929C63.5179 50.347 63.9962 52.5795 64.2043 54.9787C64.3156 56.7152 64.8355 58.2655 64.723 60.1216C63.0513 57.9611 61.2618 55.9123 59.4274 53.9056C59.9629 53.2843 59.3761 53.0777 59.3578 52.6195C59.3356 52.5212 59.3184 52.4172 59.3021 52.3153C59.3229 52.1786 59.4222 52.0009 59.4766 51.849C60.4069 49.5821 61.5795 47.2533 62.0977 45.0779C62.5424 43.3395 62.6079 41.7528 62.8703 40.0873C63.1444 38.3046 63.4939 36.4832 63.4884 34.8309C63.5143 30.8544 62.8995 27.2461 62.7162 23.3917C62.7185 21.7078 62.7907 19.9866 62.6327 18.3921C62.6049 17.9951 62.5655 17.6067 62.5318 17.2133C62.487 16.7653 62.5538 16.1356 62.0536 16.0875C61.3438 16.0918 60.7781 17.0439 60.6381 17.6493C59.8964 20.1361 58.9121 22.6912 58.2459 25.1557C57.4669 28.0233 57.1811 30.6985 56.7706 33.4215C56.3258 36.159 55.9284 38.891 56.1413 41.3032C56.3415 44.922 57.3597 48.0079 57.8537 51.4371C57.8907 51.7171 57.9285 52.0007 57.9585 52.2832C57.9564 52.2906 57.9538 52.2975 57.9513 52.3059C56.9861 51.2674 56.0145 50.236 55.046 49.2024C54.0567 48.137 53.058 47.0773 52.014 46.0658C52.0478 45.9611 52.0735 45.8579 52.099 45.7585C52.2834 45.1404 52.4367 44.5335 52.5715 43.9325C52.8448 42.6662 53.1892 41.376 53.4859 40.1019C53.9685 38.1054 53.9402 36.3339 53.8636 34.6064C53.7542 32.4062 53.9427 30.0396 53.7828 27.8677C53.5485 25.6676 53.1626 23.5548 52.6955 21.5047C52.4131 20.39 52.1716 19.247 51.9087 18.1179C51.8072 17.7857 51.7757 17.3754 51.4828 17.2087C50.921 16.8329 50.0306 17.7455 49.8624 18.51C49.4579 19.8283 49.2237 21.0903 49.0009 22.3445C48.5549 25.3144 48.1491 28.2742 47.9818 31.1154C47.9632 33.4768 47.9811 35.8312 48.2792 38.0083C48.693 40.2875 49.5832 42.2285 50.1732 44.3839C49.5821 43.8823 48.9743 43.3981 48.3419 42.9408C47.7307 42.4762 47.1043 42.0277 46.4664 41.5921C46.4627 41.4716 46.4594 41.3515 46.4731 41.2336C46.4299 39.9034 46.7444 38.3986 46.9012 36.971C47.3505 33.2605 46.5008 30.2454 45.6747 27.3094C44.9695 24.9344 44.3728 22.4805 43.5205 20.2135C43.322 19.6702 43.1435 19.1047 42.8271 18.6579C42.6716 18.4454 42.5025 18.1868 42.1375 18.2304C40.9647 18.4043 40.5636 20.2801 40.2326 21.1194C39.8299 23.1305 40.1695 24.8101 40.3451 26.5185C40.6198 29.1474 41.2053 31.5697 41.8777 33.9324C42.4601 36.0069 42.9839 38.1761 43.952 39.9616C41.9674 38.7264 39.9288 37.5526 37.9479 36.3143C37.4258 36.0067 36.9094 35.6912 36.3772 35.3952C36.5883 35.0837 36.6076 34.7636 36.5044 34.5558C36.1833 33.3726 35.7357 32.2761 35.1592 31.2922C34.18 29.6899 33.2806 28.0071 32.0129 26.6675C30.5264 25.2245 28.7814 24.0415 26.8803 23.0568C26.0235 22.6317 25.1462 22.2242 24.1533 21.9766C23.6279 21.7595 22.5408 22.0952 22.3907 23.0543C22.4699 24.1232 22.7299 25.0823 22.9898 26.0333C23.4049 27.4476 23.7178 28.9389 24.2824 30.2421C25.334 32.578 27.6193 33.7785 29.9436 34.79C31.1705 35.3747 32.5216 35.7931 34.0155 36.0014C34.7649 36.3707 35.4516 36.8129 36.1315 37.2634C36.5831 37.5779 37.0358 37.8907 37.4912 38.2022C37.0747 38.2079 36.6599 38.2127 36.2557 38.1995C34.2749 38.2009 32.1065 38.5998 29.9843 38.9023C26.905 39.2213 24.1457 38.8391 21.9841 37.727C21.6361 37.6125 21.1923 37.3765 20.6377 37.9378C20.3599 38.2207 20.2433 38.5508 20.292 38.78C20.6307 39.636 21.4247 40.1083 22.1184 40.6255C23.2775 41.4288 24.6134 42.033 26.0364 42.5125C27.2975 42.8598 28.6886 43.0196 30.0369 43.2383C31.4935 43.5423 33.1512 43.5233 35.0499 42.928C36.7951 42.5444 38.7499 41.8205 40.5611 40.296C43.1366 42.061 45.6774 43.8646 47.9995 45.903C47.9702 45.8954 47.9406 45.8888 47.9119 45.8805C47.0714 45.6483 46.1006 45.6128 45.2481 45.3999C44.2542 45.1445 43.2947 44.8339 42.1969 44.734C38.9359 44.6349 35.5278 44.7486 31.9089 45.3723C29.502 45.8301 27.1024 46.2585 24.8697 46.3242C24.4226 46.3672 24.037 46.2762 23.5681 46.3735C23.114 46.5262 22.6527 47.0451 22.5982 47.4645C22.5599 47.7534 22.7482 47.8968 22.8988 48.038C23.3584 48.4473 23.9194 48.7477 24.4668 49.0574C26.1984 50.0166 28.3923 50.3709 30.7475 50.4221C33.0536 50.5533 35.5988 50.2556 38.2618 49.6141C41.4893 48.861 44.7004 48.1634 47.8822 47.5261C48.3036 47.596 48.7693 47.9815 49.3954 47.2948C49.4342 47.2929 49.4727 47.2906 49.5145 47.2835C50.7038 48.4525 51.7924 49.7216 52.906 50.9656C53.9618 52.1735 55.0238 53.3753 56.0763 54.5866C56.026 54.5689 55.9739 54.5508 55.9226 54.5334C53.3885 53.4709 50.6779 52.6447 47.5936 52.3681C45.5143 52.0713 43.5055 51.6456 41.1672 51.7904C38.3951 51.9441 35.5295 52.2784 32.5973 52.7851C31.7532 52.9376 30.9227 53.0574 30.108 53.1414C29.5222 53.1598 28.6055 53.6184 28.5455 54.3825C28.8086 55.6679 29.8746 56.3131 30.8202 56.9722C32.3588 57.9826 34.1395 58.722 36.2851 58.9208C39.0037 59.2771 41.9498 59.2309 45.0045 58.9771C47.2848 58.7973 49.4458 58.8743 51.8247 58.485C53.6466 58.174 55.5587 57.6287 57.4068 57.2531C57.6796 57.1946 57.9588 57.1289 58.2252 57.0885C59.7334 58.8778 61.2032 60.7032 62.5854 62.6095C62.714 62.7883 62.8429 62.9674 62.969 63.1479C62.5601 62.8557 62.1471 62.5676 61.7117 62.3047C60.7629 61.7183 59.5814 61.4221 58.3976 61.1438C55.951 60.7363 53.5286 60.2839 50.9596 60.0704C49.1091 59.9726 47.0685 60.2319 45.0648 60.4344C43.4422 60.5875 41.7478 60.8943 40.1528 60.991C39.5484 61.0464 39.0018 60.9776 38.3495 61.1467C35.7748 62.2024 38.4189 64.3319 39.0363 64.7525C40.067 65.4492 41.414 65.7616 42.8006 65.982C45.0353 66.2305 47.2671 66.4856 49.5345 66.6799C51.6099 66.7989 53.7545 66.7984 55.8163 66.9405C58.6909 67.1446 61.7424 67.0151 64.8822 66.7146C65.0508 66.7041 65.2182 66.6963 65.3839 66.691C67.0089 69.1686 68.5569 71.7145 70.0838 74.2785C68.1343 73.2062 66.1577 72.1595 63.9613 71.3954C58.7677 69.828 52.6443 69.5724 46.0435 70.4251C44.2317 70.8154 39.6082 70.0314 38.0422 71.839C37.4336 72.4904 37.5932 72.9663 37.9095 73.2255C38.6019 73.9723 39.6011 74.3931 40.6382 74.7392C42.287 75.3223 44.2827 75.3901 46.1555 75.6364C47.825 75.8397 49.4346 76.1445 51.198 76.1919C53.8154 76.2624 56.562 76.0928 59.215 76.0996C61.1937 76.1098 63.0407 76.3575 65.0309 76.3465C66.4645 76.3899 68.0044 76.2219 69.5184 76.1095C69.7805 76.0647 69.9842 76.1136 70.2198 76.113C70.5416 76.0017 70.8032 76.046 71.0974 76.0104C71.1009 76.0098 71.1055 76.0089 71.1107 76.0074C72.0436 77.5865 72.9748 79.1681 73.9135 80.7421C72.5195 80.2374 71.0626 79.8191 69.3734 79.7455C66.9814 79.4496 64.4189 79.4491 61.6862 79.7873C59.9746 79.9466 58.3696 79.8907 56.6409 80.0871C55.4043 80.2162 54.0445 80.6635 52.6935 81.1331C50.7783 81.796 48.8469 82.5039 46.9773 82.9993C45.9725 83.3318 44.9753 83.3433 43.9221 84.0049C42.9224 84.7837 43.5888 85.298 43.9418 85.5804C44.4419 86.0031 44.9646 86.4091 45.602 86.6745C47.0213 87.3905 48.9167 87.4042 50.8931 87.2261C52.2539 87.122 53.5783 87.0914 54.9602 86.9433C56.7197 86.7641 58.5818 86.348 60.3507 86.1483C61.8316 85.9729 63.2733 85.8832 64.8161 85.5647C67.2385 85.0817 69.8758 83.8674 72.3267 83.2975C73.1227 83.097 73.9262 82.889 74.7556 82.5739C74.8917 82.5213 74.8764 82.5291 74.9756 82.5319C74.9806 82.5328 74.9859 82.5327 74.9905 82.5333C76.0166 84.2246 77.0584 85.9017 78.1336 87.5498C78.2865 87.8032 78.4401 88.056 78.5982 88.305C78.1546 88.2484 77.7273 88.1645 77.2709 88.1303C75.8598 87.9765 74.4817 87.7727 73.0123 87.7166C71.3839 87.659 69.6564 87.7861 68.0175 87.7478C66.2199 87.7383 64.4083 87.7242 62.3968 88.1605C60.1333 88.6693 57.8234 89.3109 55.5659 89.8027C53.5996 90.3209 51.7349 90.4818 49.7021 91.2321C45.7857 93.2364 50.3365 94.738 51.4446 95.0138C53.1508 95.4967 55.0222 95.7702 57.1605 95.5299Z" fill="white"/>
</g>
</g>
<defs>
<filter id="filter0_d_3_443" x="10.2812" y="10.0875" width="102.659" height="107.856" filterUnits="userSpaceOnUse" color-interpolation-filters="sRGB">
<feFlood flood-opacity="0" result="BackgroundImageFix"/>
<feColorMatrix in="SourceAlpha" type="matrix" values="0 0 0 0 0 0 0 0 0 0 0 0 0 0 0 0 0 0 127 0" result="hardAlpha"/>
<feOffset dy="4"/>
<feGaussianBlur stdDeviation="5"/>
<feComposite in2="hardAlpha" operator="out"/>
<feColorMatrix type="matrix" values="0 0 0 0 0 0 0 0 0 0 0 0 0 0 0 0 0 0 0.25 0"/>
<feBlend mode="normal" in2="BackgroundImageFix" result="effect1_dropShadow_3_443"/>
<feBlend mode="normal" in="SourceGraphic" in2="effect1_dropShadow_3_443" result="shape"/>
</filter>
</defs>
</svg>
